<svg xmlns="http://www.w3.org/2000/svg" width="39.375" height="40" viewBox="0 0 39.375 40"><defs><style>.a{fill:#fff}</style></defs><path class="a" d="M27.805 10.825H11.221v8.469l.875.237c0 .324-.023 5.617-.023 5.617l-.118 1.964-.012.193.941.2.148.841h4.273l2.4 4.15.346.052 5.659-5.275v-1.2l.921-1.1.644-1.782-.046-1.394 1-1.551.734-1.1.959-.707v-.905l-.536-.633-.52-2.74-.839-1.118v-2.218zm-.224.448v1.911l.866 1.155.522 2.753.506.6v.515l-.84.619-.78 1.169-1.081 1.672.048 1.448-.588 1.627-.974 1.168v1.168l-5.311 4.95-2.386-4.13h-4.156l-.136-.769-.859-.181.107-1.784.024-5.8v-.172l-.876-.237v-7.678z"/><path class="a" d="M20 33.846a13.846 13.846 0 1 1 12.928-18.811h6.446a20 20 0 1 0-.117 10.373h-6.513A13.86 13.86 0 0 1 20 33.846zm18.048-7.656a19.081 19.081 0 1 1 .144-11.932h-1.059A17.942 17.942 0 0 0 19.999 1.641 18.36 18.36 0 1 0 37.104 26.19z"/><path class="a" d="M19.999 24.495a4.652 4.652 0 1 1 4.5-5.839h.283a4.922 4.922 0 1 0 0 2.381H24.5a4.641 4.641 0 0 1-4.501 3.458z"/><path class="a" d="M19.994 24.038a4.2 4.2 0 1 1 4.024-5.383h.214l.021-.006a4.423 4.423 0 1 0 0 2.386H24.015a4.208 4.208 0 0 1-4.021 3.003z"/><path class="a" d="M19.988 23.621a3.779 3.779 0 1 1 3.587-4.966h.186l.023-.007a3.978 3.978 0 1 0 0 2.389H23.572a3.762 3.762 0 0 1-3.584 2.584z"/><path class="a" d="M19.984 23.246a3.4 3.4 0 1 1 3.19-4.591H23.357a3.577 3.577 0 1 0 0 2.383h-.189a3.409 3.409 0 0 1-3.184 2.208z"/><path class="a" d="M19.979 22.911a3.069 3.069 0 1 1 2.829-4.256h.144l.012-.005a3.214 3.214 0 1 0 0 2.384h-.158a3.054 3.054 0 0 1-2.827 1.877z"/><path class="a" d="M19.975 22.61a2.768 2.768 0 1 1 2.5-3.955h.131a2.886 2.886 0 1 0 0 2.379h-.132a2.774 2.774 0 0 1-2.499 1.576z"/><path class="a" d="M19.973 22.342a2.5 2.5 0 1 1 2.2-3.686h.1a2.59 2.59 0 1 0 0 2.378h-.1a2.49 2.49 0 0 1-2.2 1.308z"/></svg>