<svg xmlns="http://www.w3.org/2000/svg" viewBox="0 0 155.9 20"><path d="M7.1 11.6c-.1-1 .1-2 .6-2.8 1.5-.1 2.9.5 3.9 1.6.3 1.5.4 3 .2 4.5-1.5-.2-2.9-.8-4.2-1.7-.3-.5-.4-1.1-.5-1.6zM3.2 13s-.1-2 2.4-3.5c.8 1.1 1.2 2.5 1.3 3.8-.5 1.1-1.1 2.2-1.9 3.2-.9-1-1.5-2.2-1.8-3.5zM4.9 2.8S7 .6 8 1.4c-.5.9-1.1 1.8-1.8 2.5-.5.1-1 .1-1.5-.2-.4-.3-.2-.6 0-.8l.2-.1zM8.2 2.2C9 1.1 11.6.3 12.6 0c-.1.5-.3 1.1-.5 1.6-1.2 1-2.5 1.8-3.9 2.4-.5-.6-.4-1.3 0-1.8zM1.4 5.5C2.2 4.8 3.1 4.3 4 4c.1 0 .7.2.7 1.9-.7.7-1.5 1.2-2.4 1.6-.3.1-.5.2-.8.2-.3-.3-.4-.6-.5-1.1 0-.4.1-.8.4-1.1zM0 12.3c.2-1.4.7-2.7 1.6-3.9.8-.7 1.9-.9 2.9-.5-.2 1-.6 2-1 2.9-.6 1.2-.6 1.2-1.1 1.4-.8.4-1.6.5-2.4.4v-.3zM9.9 6.7c1.1-.8 2.5-1.2 3.8-1.2 1.2.6 2.2 1.6 2.9 2.8-1.2.6-2.5 1.1-3.8 1.4-.5.1-.9.2-1.9-.7-.6-.5-1.1-1.2-1.3-2 0-.1.2-.2.3-.3zM9.3 4.9c1.4-3.4 5.4-3 6.6-2.9-.7 1.1-1.6 2-2.6 2.9-.4.2-.8.3-1.3.3-1 .2-2 .2-2.9-.1l.2-.2zM29.65 4.763c-.1.1-.2.2-.3.2-.2 0-.3-.1-.4-.2-.5-.4-1.1-.8-1.7-1-1.1-.3-2.2-.3-3.2 0-.4.2-.8.4-1.2.7-.3.3-.6.7-.7 1.1-.3.4-.4.8-.4 1.3s.1 1 .4 1.4c.3.4.6.7 1 1 .4.3.9.5 1.4.7.5.2 1 .4 1.6.5.5.2 1.1.4 1.6.6.5.2 1 .5 1.4.8.4.3.7.7 1 1.2.3.5.4 1.2.4 1.8 0 .7-.1 1.4-.4 2-.2.6-.6 1.2-1.1 1.7-.5.5-1.1.9-1.7 1.1-.7.3-1.5.4-2.3.4-1 0-2-.2-2.9-.6-.8-.4-1.5-1-2.1-1.6l.3-.5c.1-.1.2-.2.3-.2.1 0 .2.1.3.1l.4.4c.2.1.4.3.6.5.2.2.5.3.8.5.3.2.7.3 1 .4.4.1.9.2 1.3.1.6 0 1.2-.1 1.8-.3.5-.2 1-.5 1.4-.8.4-.4.7-.8.8-1.3.2-.5.3-1 .3-1.6 0-.5-.1-1-.4-1.5-.3-.4-.6-.7-1-1-.4-.3-.9-.5-1.4-.7-.5-.2-1-.4-1.6-.5-.5-.2-1.1-.4-1.6-.6-.5-.2-1-.5-1.4-.8-.4-.3-.7-.8-1-1.2-.3-.6-.4-1.2-.4-1.8 0-.6.1-1.1.3-1.7.2-.5.5-1 1-1.4.5-.4 1-.8 1.6-1 .7-.3 1.4-.4 2.1-.4.8 0 1.6.1 2.4.4.7.3 1.4.7 1.9 1.3l-.2.5zM41.95 9.363l-.1.1h-.2c-.1 0-.2-.1-.3-.2-.2-.1-.4-.3-.6-.4-.3-.1-.6-.3-.9-.4-1-.3-2.1-.2-3.1.2-.5.2-1 .6-1.4 1.1-.4.5-.7 1.1-.8 1.7-.4 1.5-.4 3 0 4.5.2.6.5 1.2.8 1.7.4.4.8.8 1.3 1 .5.2 1.1.4 1.7.4.5 0 1-.1 1.5-.2.3-.1.7-.3 1-.4.2-.1.4-.3.6-.4.1-.1.2-.2.4-.2.1 0 .2 0 .2.1l.3.4c-.2.3-.4.5-.7.7-.3.2-.6.4-1 .5-.4.2-.8.3-1.2.4-.4.1-.9.1-1.3.1-.7 0-1.4-.1-2.1-.4-.6-.3-1.2-.7-1.6-1.2-.5-.6-.8-1.2-1.1-2-.5-1.7-.5-3.5 0-5.1.2-.7.6-1.4 1.1-2 .5-.6 1.1-1 1.7-1.3.7-.3 1.5-.5 2.3-.5.7 0 1.4.1 2.1.4.6.2 1.1.6 1.6 1l-.2.4zM45.05 19.763v-17.6h1.2v7.6c.5-.7 1.2-1.2 1.9-1.6.7-.4 1.6-.6 2.4-.6.6 0 1.2.1 1.8.3.5.2.9.5 1.3.9.3.4.6.9.8 1.4.2.6.3 1.3.3 1.9v7.7h-1.2v-7.7c.1-1-.2-1.9-.8-2.7-.6-.7-1.5-1-2.4-1-.8 0-1.5.2-2.2.6-.7.4-1.3 1-1.8 1.7v9.1h-1.3zM62.85 7.563c.8 0 1.6.1 2.3.4.7.3 1.3.7 1.7 1.3.5.6.9 1.2 1.1 2 .5 1.7.5 3.5 0 5.1-.2.7-.6 1.4-1.1 2-.5.5-1.1 1-1.7 1.3-1.5.6-3.2.6-4.6 0-.7-.3-1.3-.7-1.7-1.3-.5-.6-.9-1.2-1.1-2-.5-1.7-.5-3.5 0-5.1.2-.7.6-1.4 1.1-2 .5-.5 1.1-1 1.7-1.3.7-.3 1.5-.4 2.3-.4zm0 11.5c.6 0 1.3-.1 1.9-.4.5-.2 1-.6 1.3-1.1.4-.5.7-1.1.8-1.7.4-1.4.4-2.9 0-4.4-.2-.6-.4-1.2-.8-1.7s-.8-.8-1.3-1.1a5 5 0 0 0-3.8 0c-.5.2-1 .6-1.3 1.1-.4.5-.7 1.1-.8 1.7-.4 1.4-.4 2.9 0 4.4.2.6.4 1.2.8 1.7s.8.8 1.3 1.1c.6.3 1.2.4 1.9.4zM76.55 7.563c.8 0 1.6.1 2.3.4.7.3 1.3.7 1.7 1.3.5.6.9 1.2 1.1 2 .5 1.7.5 3.5 0 5.1-.2.7-.6 1.4-1.1 2-.5.5-1.1 1-1.7 1.3-1.5.6-3.2.6-4.6 0-.7-.3-1.3-.7-1.7-1.3-.5-.6-.9-1.2-1.1-2-.5-1.7-.5-3.5 0-5.1.2-.7.6-1.4 1.1-2 .5-.5 1.1-1 1.7-1.3.7-.3 1.5-.4 2.3-.4zm0 11.5c.6 0 1.3-.1 1.9-.4.5-.2 1-.6 1.3-1.1.4-.5.7-1.1.8-1.7.4-1.4.4-2.9 0-4.4-.2-.6-.4-1.2-.8-1.7s-.8-.8-1.3-1.1a5 5 0 0 0-3.8 0c-.5.2-1 .6-1.3 1.1-.4.5-.7 1.1-.8 1.7-.4 1.4-.4 2.9 0 4.4.2.6.4 1.2.8 1.7s.8.8 1.3 1.1c.6.3 1.3.4 1.9.4zM86.55 2.163v17.7h-1.2v-17.7h1.2zM90.15 19.763v-17.1h4.9c.9 0 1.7.1 2.5.3.6.2 1.2.5 1.8.9.5.4.8.8 1 1.4.2.6.4 1.2.3 1.8 0 .4-.1.9-.2 1.3-.2.4-.4.8-.7 1.2-.3.4-.7.7-1.1.9-.5.3-1 .5-1.5.6 1.2.1 2.2.6 3.1 1.3.7.7 1.1 1.7 1.1 2.8 0 .7-.1 1.3-.4 2-.3.6-.6 1.1-1.1 1.5-.5.4-1.2.7-1.8.9-.8.2-1.6.3-2.5.3l-5.4-.1zm1.2-9.1h3.7c.7 0 1.4-.1 2-.3.5-.2 1-.4 1.4-.8.3-.3.6-.7.8-1.1.2-.4.3-.9.3-1.3.1-1-.3-2-1.1-2.6-1-.7-2.2-1-3.4-.9h-3.7v7zm0 .9v7.2h4.3c1.2.1 2.4-.3 3.4-1 .8-.7 1.2-1.7 1.2-2.7 0-.5-.1-1-.3-1.5-.2-.4-.5-.8-.9-1.1-.4-.3-.9-.6-1.4-.7-.6-.2-1.3-.3-1.9-.2h-4.4zM105.35 7.763v7.7c-.1 1 .2 1.9.8 2.7.6.7 1.5 1 2.4 1 .8 0 1.5-.2 2.2-.6.7-.4 1.3-1 1.8-1.7v-9.1h1.2v12.1h-.6c-.2 0-.3-.1-.3-.3l-.1-1.8c-.5.7-1.2 1.2-1.9 1.7-.7.4-1.6.6-2.4.6-.6 0-1.2-.1-1.8-.3-.5-.2-.9-.5-1.3-.9-.3-.4-.6-.9-.8-1.4-.2-.6-.3-1.3-.3-1.9v-7.7h1.1v-.1zM116.35 19.763v-12h.6c.2 0 .3.1.4.3l.1 1.8c.5-.7 1.2-1.2 1.9-1.7.7-.4 1.6-.6 2.4-.6.6 0 1.2.1 1.8.3.5.2.9.5 1.3.9.3.4.6.9.8 1.4.2.6.3 1.3.3 1.9v7.7h-1.2v-7.7c.1-1-.2-1.9-.8-2.7-.6-.7-1.5-1-2.4-1-.8 0-1.5.2-2.2.6-.7.4-1.3 1-1.8 1.7v9.1h-1.2zM138.05 19.763c-.2 0-.3-.1-.3-.3l-.1-1.9c-.5.7-1.1 1.3-1.9 1.7-.7.4-1.6.7-2.4.6-1.3.1-2.6-.5-3.5-1.5-.9-1.4-1.4-3-1.2-4.6 0-.8.1-1.7.3-2.5.2-.7.6-1.4 1-2 .4-.6 1-1 1.7-1.3.7-.3 1.5-.5 2.3-.5.7 0 1.5.1 2.1.5.6.3 1.1.8 1.6 1.3v-7.1h1.2v17.7h-.8zm-4.4-.7c.8 0 1.5-.2 2.2-.6.7-.5 1.3-1 1.7-1.7v-6.4c-1.2-1.7-3.4-2.4-5.3-1.5-.5.3-1 .6-1.3 1.1-.4.5-.7 1.1-.8 1.7-.2.7-.3 1.4-.3 2.2-.1 1.4.2 2.8 1 4 .6.8 1.7 1.2 2.8 1.2zM142.95 2.163v17.7h-1.2v-17.7h1.2zM151.15 7.563c.6 0 1.3.1 1.9.4.6.2 1.1.6 1.5 1 .4.5.8 1 1 1.7.2.7.4 1.5.4 2.3 0 .1 0 .3-.1.4-.1.1-.2.1-.2.1h-8.7v.2c0 .8.1 1.6.3 2.4.2.6.5 1.2.9 1.7s.9.8 1.4 1c.6.2 1.2.4 1.8.4.5 0 1.1-.1 1.6-.2.4-.1.8-.3 1.1-.4.3-.1.5-.3.7-.4.1-.1.2-.2.4-.2.1 0 .2 0 .2.1l.3.4c-.2.3-.5.5-.8.7-.3.2-.7.4-1.1.5-.4.2-.8.3-1.3.4-.4.1-.9.1-1.4.1-.8 0-1.5-.1-2.3-.4-.7-.3-1.3-.7-1.7-1.3-.5-.6-.9-1.3-1.1-2-.3-.9-.4-1.8-.4-2.7 0-.8.1-1.6.4-2.4.2-.7.6-1.3 1.1-1.9.5-.5 1.1-1 1.7-1.2.9-.6 1.7-.7 2.4-.7zm.1.8c-.6 0-1.1.1-1.7.3-.5.2-.9.5-1.3.8-.4.4-.7.8-.9 1.3-.2.5-.4 1.1-.4 1.7h7.9c0-.6-.1-1.2-.3-1.7-.2-.5-.4-.9-.8-1.3-.3-.4-.7-.6-1.2-.8-.3-.2-.8-.3-1.3-.3z"/></svg>