<svg xmlns="http://www.w3.org/2000/svg" viewBox="0 0 39.4 40"><path d="M27.821 10.825h-16.6v8.5l.9.2v5.6l-.1 2v.2l.9.2.1.8h4.3l2.4 4.1.3.1 5.7-5.3v-1.2l.9-1.1.6-1.8v-1.4l1-1.6.7-1.1 1-.7v-.8l-.5-.6c0-.1-.5-2.7-.5-2.7l-.8-1.1v-2.3h-.3zm-.2.4v1.9l.9 1.2c0 .1.5 2.8.5 2.8l.5.6v.5l-.9.6-.8 1.2-1.1 1.7v1.4l-.5 1.6-1 1.2v1.2l-5.3 5-2.4-4.1h-4.1l-.1-.8-.9-.2c0-.3.1-1.8.1-1.8v-6l-.9-.3v-7.6l16-.1z"/><path d="M20.02 33.896c-7.6 0-13.8-6.2-13.8-13.8 0-7.6 6.2-13.8 13.8-13.8 5.7 0 10.9 3.5 12.9 8.9h6.4c-2.7-10.7-13.6-17.1-24.3-14.4-10.7 2.7-17.1 13.6-14.4 24.3 2.7 10.7 13.6 17.1 24.3 14.4 6.9-1.8 12.4-7.1 14.3-14h-6.5c-2.1 5-7.2 8.3-12.7 8.4zm18-7.7c-3.4 10-14.3 15.3-24.2 11.9-10-3.4-15.3-14.3-11.9-24.2 3.4-10 14.3-15.3 24.2-11.9 5.7 2 10.2 6.5 12 12.3h-1.1c-2.3-7.5-9.3-12.6-17.1-12.6-10.1-.1-18.4 8-18.5 18.2-.1 10.1 8 18.4 18.2 18.5 7.8.1 14.8-4.8 17.5-12.2h.9z"/><path d="M20.02 24.496c-2.6 0-4.7-2.1-4.7-4.7s2.1-4.7 4.7-4.6c2.1 0 4 1.4 4.5 3.5h.3c-.7-2.6-3.3-4.2-6-3.6s-4.2 3.3-3.6 6 3.3 4.2 6 3.6c1.8-.4 3.1-1.8 3.6-3.6h-.3c-.6 2-2.4 3.4-4.5 3.4z"/><path d="M20.02 23.996c-2.3 0-4.2-1.9-4.2-4.2s1.9-4.2 4.2-4.2c1.9 0 3.5 1.2 4 3h.2c-.7-2.4-3.1-3.7-5.5-3.1-2.4.7-3.7 3.1-3.1 5.5.7 2.4 3.1 3.7 5.5 3.1 1.5-.4 2.6-1.6 3.1-3.1h-.2c-.5 1.8-2.2 3-4 3z"/><path d="M20.02 23.596c-2.1 0-3.8-1.7-3.8-3.8 0-2.1 1.7-3.8 3.8-3.8 1.6 0 3.1 1 3.6 2.6h.2c-.7-2.1-2.9-3.3-5-2.6s-3.3 2.9-2.6 5c.7 2.1 2.9 3.3 5 2.6 1.2-.4 2.2-1.4 2.6-2.6h-.2c-.6 1.6-2 2.6-3.6 2.6z"/><path d="M20.02 23.296c-1.9 0-3.4-1.5-3.4-3.4s1.5-3.4 3.4-3.4c1.4 0 2.7.9 3.2 2.2h.2c-.7-1.9-2.7-2.8-4.6-2.2-1.9.7-2.8 2.7-2.2 4.6s2.7 2.8 4.6 2.2c1-.4 1.8-1.2 2.2-2.2h-.2c-.6 1.3-1.8 2.1-3.2 2.2z"/><path d="M20.02 22.896c-1.7 0-3.1-1.4-3.1-3.1 0-1.7 1.4-3.1 3.1-3.1 1.2 0 2.4.7 2.8 1.9h.1c-.7-1.6-2.5-2.5-4.2-1.8-1.6.7-2.5 2.5-1.8 4.2s2.5 2.5 4.2 1.8c.8-.3 1.5-1 1.8-1.8h-.2c-.4 1.2-1.5 1.9-2.7 1.9z"/><path d="M20.02 22.596c-1.5 0-2.8-1.2-2.8-2.8 0-1.5 1.2-2.8 2.8-2.8 1.1 0 2 .6 2.5 1.6h.1c-.7-1.5-2.4-2.1-3.8-1.4-1.5.7-2.1 2.4-1.4 3.8.7 1.5 2.4 2.1 3.8 1.4.6-.3 1.2-.8 1.4-1.4h-.1c-.5 1-1.5 1.6-2.5 1.6z"/><path d="M20.02 22.296c-1.4 0-2.5-1.1-2.5-2.5s1.1-2.5 2.5-2.5c.9 0 1.8.5 2.2 1.3h.1c-.7-1.3-2.2-1.8-3.5-1.1-1.3.7-1.8 2.2-1.1 3.5.7 1.3 2.2 1.8 3.5 1.1.5-.2.9-.6 1.1-1.1h-.1c-.5.8-1.3 1.3-2.2 1.3z"/></svg>