<svg xmlns="http://www.w3.org/2000/svg" width="155.936" height="20" viewBox="0 0 155.936 20"><defs><style>.a{opacity:.7}.b{fill:#fff}</style></defs><g class="a"><path class="b" d="M7.108 11.58a4.971 4.971 0 0 1 .572-2.849 4.48 4.48 0 0 1 3.871 1.634 13.736 13.736 0 0 1 .225 4.493 10.475 10.475 0 0 1-4.187-1.66 4.461 4.461 0 0 1-.481-1.618zM3.208 13.008c0-.019-.134-2 2.419-3.507a7.053 7.053 0 0 1 1.251 3.818 13.49 13.49 0 0 1-1.926 3.186 7.1 7.1 0 0 1-1.744-3.497zM4.867 2.807c.019-.024 2.1-2.233 3.137-1.363a16.365 16.365 0 0 1-1.836 2.491 2.012 2.012 0 0 1-1.434-.2c-.4-.282-.153-.588.009-.789zM8.235 2.154C9.011 1.054 11.617.285 12.598 0a10.193 10.193 0 0 1-.55 1.573 14.239 14.239 0 0 1-3.9 2.4 1.459 1.459 0 0 1 .087-1.819zM1.401 5.49a8.846 8.846 0 0 1 2.607-1.515c.118.015.716.18.665 1.927a9.063 9.063 0 0 1-2.391 1.607 3.068 3.068 0 0 1-.788.227 1.7 1.7 0 0 1-.459-1.093 1.509 1.509 0 0 1 .366-1.153zM.035 12.291a8.488 8.488 0 0 1 1.554-3.862 2.9 2.9 0 0 1 2.927-.488 14.386 14.386 0 0 1-1.041 2.933c-.553 1.126-.584 1.142-1.056 1.337A4.35 4.35 0 0 1 0 12.583zM9.877 6.747a6.388 6.388 0 0 1 3.841-1.231 7.2 7.2 0 0 1 2.873 2.825 13.153 13.153 0 0 1-3.826 1.354c-.489.093-.909.171-1.94-.689a3.5 3.5 0 0 1-1.281-2c.098-.078.23-.185.333-.259zM9.32 4.947c1.44-3.392 5.359-3.006 6.649-2.88a15.309 15.309 0 0 1-2.574 2.865 7.428 7.428 0 0 1-1.259.341 5.865 5.865 0 0 1-2.905-.1zM29.639 4.726a.343.343 0 0 1-.315.206.7.7 0 0 1-.408-.225 5.225 5.225 0 0 0-1.741-1 5.352 5.352 0 0 0-3.225.037 3.441 3.441 0 0 0-1.193.728 3.089 3.089 0 0 0-.73 1.068 3.317 3.317 0 0 0-.25 1.274 2.6 2.6 0 0 0 .371 1.444 3.339 3.339 0 0 0 .978.97 6.345 6.345 0 0 0 1.379.673q.771.273 1.585.54t1.585.588a5.72 5.72 0 0 1 1.379.807 3.7 3.7 0 0 1 .978 1.2 3.783 3.783 0 0 1 .371 1.765 5.558 5.558 0 0 1-.37 2.032 4.741 4.741 0 0 1-1.074 1.656 5.035 5.035 0 0 1-1.723 1.11 6.244 6.244 0 0 1-2.329.406 6.582 6.582 0 0 1-2.924-.6 6.889 6.889 0 0 1-2.148-1.644l.34-.534a.426.426 0 0 1 .339-.182.486.486 0 0 1 .28.145l.413.358q.243.212.583.461a4.79 4.79 0 0 0 .79.461 5.615 5.615 0 0 0 1.033.358 5.487 5.487 0 0 0 1.324.145 5.036 5.036 0 0 0 1.823-.31 3.987 3.987 0 0 0 1.355-.843 3.572 3.572 0 0 0 .844-1.268 4.218 4.218 0 0 0 .292-1.571 2.769 2.769 0 0 0-.371-1.5 3.2 3.2 0 0 0-.978-.983 6.306 6.306 0 0 0-1.379-.661q-.771-.267-1.585-.522t-1.585-.57a5.462 5.462 0 0 1-1.379-.807 3.677 3.677 0 0 1-.978-1.225 4.057 4.057 0 0 1-.371-1.838 4.343 4.343 0 0 1 .328-1.662 4.136 4.136 0 0 1 .96-1.413 4.721 4.721 0 0 1 1.561-.983 5.693 5.693 0 0 1 2.12-.37 6.426 6.426 0 0 1 2.4.425 5.742 5.742 0 0 1 1.937 1.3zM41.993 9.348a1.284 1.284 0 0 1-.115.1.241.241 0 0 1-.152.042.632.632 0 0 1-.334-.164 4.487 4.487 0 0 0-.564-.358 4.771 4.771 0 0 0-.88-.358 4.917 4.917 0 0 0-3.125.21 3.67 3.67 0 0 0-1.363 1.06 4.868 4.868 0 0 0-.843 1.674 8.617 8.617 0 0 0 .006 4.466 4.807 4.807 0 0 0 .843 1.656 3.581 3.581 0 0 0 1.322 1.025 4.12 4.12 0 0 0 1.723.352 4.461 4.461 0 0 0 1.462-.206 4.737 4.737 0 0 0 .97-.449 4.321 4.321 0 0 0 .607-.449.628.628 0 0 1 .358-.206.278.278 0 0 1 .242.121l.315.388a3.542 3.542 0 0 1-.7.68 4.77 4.77 0 0 1-.958.546 5.891 5.891 0 0 1-1.158.358 6.528 6.528 0 0 1-1.3.127 5.181 5.181 0 0 1-2.105-.418 4.567 4.567 0 0 1-1.638-1.213 5.683 5.683 0 0 1-1.075-1.952 9.056 9.056 0 0 1-.018-5.144 5.673 5.673 0 0 1 1.061-1.965 4.769 4.769 0 0 1 1.711-1.28 5.613 5.613 0 0 1 2.323-.455 5.473 5.473 0 0 1 2.093.376 5.131 5.131 0 0 1 1.6 1.019zM45.084 19.806V2.155h1.152v7.643a6.8 6.8 0 0 1 1.911-1.644 4.775 4.775 0 0 1 2.408-.613 4.54 4.54 0 0 1 1.753.315 3.226 3.226 0 0 1 1.256.91 4.03 4.03 0 0 1 .752 1.432 6.49 6.49 0 0 1 .255 1.893v7.716h-1.152V12.09a4.138 4.138 0 0 0-.776-2.663 2.871 2.871 0 0 0-2.378-.965 4.214 4.214 0 0 0-2.208.613 6.423 6.423 0 0 0-1.82 1.68v9.051h-1.153zM62.815 7.54a5.812 5.812 0 0 1 2.323.443 4.737 4.737 0 0 1 1.729 1.256 5.569 5.569 0 0 1 1.074 1.959 9.057 9.057 0 0 1 0 5.126 5.567 5.567 0 0 1-1.074 1.953 4.682 4.682 0 0 1-1.729 1.25 6.4 6.4 0 0 1-4.647 0 4.728 4.728 0 0 1-1.735-1.25 5.515 5.515 0 0 1-1.08-1.953 9.057 9.057 0 0 1 0-5.126 5.508 5.508 0 0 1 1.08-1.959 4.794 4.794 0 0 1 1.735-1.256 5.808 5.808 0 0 1 2.324-.443zm0 11.514a4.478 4.478 0 0 0 1.887-.37 3.567 3.567 0 0 0 1.346-1.061 4.684 4.684 0 0 0 .807-1.668 9.092 9.092 0 0 0 0-4.374 4.743 4.743 0 0 0-.807-1.68 3.608 3.608 0 0 0-1.346-1.074 4.918 4.918 0 0 0-3.773 0 3.6 3.6 0 0 0-1.346 1.074 4.818 4.818 0 0 0-.813 1.68 8.9 8.9 0 0 0 0 4.374 4.755 4.755 0 0 0 .813 1.668 3.57 3.57 0 0 0 1.342 1.056 4.476 4.476 0 0 0 1.89.375zM76.56 7.54a5.813 5.813 0 0 1 2.323.443 4.738 4.738 0 0 1 1.729 1.256 5.569 5.569 0 0 1 1.074 1.959 9.057 9.057 0 0 1 0 5.126 5.567 5.567 0 0 1-1.074 1.953 4.682 4.682 0 0 1-1.729 1.25 6.4 6.4 0 0 1-4.647 0 4.728 4.728 0 0 1-1.735-1.25 5.516 5.516 0 0 1-1.08-1.953 9.057 9.057 0 0 1 0-5.126 5.509 5.509 0 0 1 1.08-1.959 4.794 4.794 0 0 1 1.735-1.256 5.809 5.809 0 0 1 2.324-.443zm0 11.514a4.478 4.478 0 0 0 1.887-.37 3.567 3.567 0 0 0 1.346-1.061 4.684 4.684 0 0 0 .807-1.668 9.092 9.092 0 0 0 0-4.374 4.743 4.743 0 0 0-.807-1.68 3.608 3.608 0 0 0-1.346-1.074 4.918 4.918 0 0 0-3.773 0 3.606 3.606 0 0 0-1.347 1.074 4.819 4.819 0 0 0-.813 1.68 8.9 8.9 0 0 0 0 4.374 4.756 4.756 0 0 0 .813 1.668 3.568 3.568 0 0 0 1.347 1.061 4.476 4.476 0 0 0 1.886.37zM86.534 2.155v17.651h-1.157V2.155zM90.142 19.809V2.639h4.938a9.8 9.8 0 0 1 2.542.291 4.841 4.841 0 0 1 1.777.855 3.513 3.513 0 0 1 1.049 1.377 4.661 4.661 0 0 1 .345 1.844 3.717 3.717 0 0 1-.236 1.31 3.973 3.973 0 0 1-.686 1.165 4.4 4.4 0 0 1-1.1.928 5.27 5.27 0 0 1-1.487.6 5.592 5.592 0 0 1 3.118 1.347 3.633 3.633 0 0 1 1.092 2.754 4.786 4.786 0 0 1-.388 1.965 3.99 3.99 0 0 1-1.128 1.48 5.148 5.148 0 0 1-1.82.928 8.586 8.586 0 0 1-2.451.322zm1.238-9.135h3.725a6.027 6.027 0 0 0 2.031-.3 4.017 4.017 0 0 0 1.384-.8 3.107 3.107 0 0 0 .795-1.128 3.425 3.425 0 0 0 .254-1.3 3.186 3.186 0 0 0-1.1-2.627 5.327 5.327 0 0 0-3.39-.892h-3.7zm0 .91v7.225h4.307a5.175 5.175 0 0 0 3.421-.977 3.4 3.4 0 0 0 1.156-2.745 3.369 3.369 0 0 0-.309-1.462 3.05 3.05 0 0 0-.892-1.1 4.158 4.158 0 0 0-1.431-.7 7.038 7.038 0 0 0-1.929-.242h-4.319zM105.34 7.734v7.716a4.126 4.126 0 0 0 .779 2.663 2.871 2.871 0 0 0 2.374.965 4.278 4.278 0 0 0 2.2-.6 6.421 6.421 0 0 0 1.838-1.668V7.734h1.156v12.072h-.635c-.224 0-.34-.105-.348-.315l-.109-1.8a6.855 6.855 0 0 1-1.938 1.674 4.831 4.831 0 0 1-2.448.631 4.539 4.539 0 0 1-1.762-.315 3.236 3.236 0 0 1-1.251-.91 4.028 4.028 0 0 1-.753-1.432 6.476 6.476 0 0 1-.255-1.893V7.734h1.153zM116.367 19.806V7.734h.631a.328.328 0 0 1 .364.3l.109 1.82a6.777 6.777 0 0 1 1.923-1.68 4.784 4.784 0 0 1 2.444-.637 4.543 4.543 0 0 1 1.754.315 3.22 3.22 0 0 1 1.255.91 4.032 4.032 0 0 1 .753 1.432 6.5 6.5 0 0 1 .255 1.893v7.716h-1.148V12.09a4.136 4.136 0 0 0-.777-2.663 2.869 2.869 0 0 0-2.378-.965 4.21 4.21 0 0 0-2.208.613 6.412 6.412 0 0 0-1.82 1.68v9.051h-1.157zM138.06 19.806a.324.324 0 0 1-.348-.315l-.121-1.9a6.409 6.409 0 0 1-1.877 1.735 4.605 4.605 0 0 1-2.411.643 4.212 4.212 0 0 1-3.468-1.541 7.246 7.246 0 0 1-1.245-4.622 8.493 8.493 0 0 1 .347-2.469 5.863 5.863 0 0 1 1.02-1.99 4.861 4.861 0 0 1 1.652-1.328 5.011 5.011 0 0 1 2.254-.485 4.656 4.656 0 0 1 2.125.455 4.454 4.454 0 0 1 1.555 1.329V2.155h1.156v17.651zm-4.43-.776a3.966 3.966 0 0 0 2.175-.619 6.165 6.165 0 0 0 1.738-1.723v-6.37a4.289 4.289 0 0 0-5.335-1.492 3.681 3.681 0 0 0-1.343 1.1 4.949 4.949 0 0 0-.815 1.7 8.163 8.163 0 0 0-.273 2.178 6.4 6.4 0 0 0 1 3.961 3.417 3.417 0 0 0 2.853 1.265zM142.995 2.155v17.651h-1.157V2.155zM151.191 7.54a4.97 4.97 0 0 1 1.887.352 4.237 4.237 0 0 1 1.5 1.025 4.731 4.731 0 0 1 1 1.656 6.586 6.586 0 0 1 .358 2.256.607.607 0 0 1-.079.364.3.3 0 0 1-.249.1h-8.711v.231a8.168 8.168 0 0 0 .315 2.39 4.882 4.882 0 0 0 .9 1.729 3.7 3.7 0 0 0 1.407 1.05 4.649 4.649 0 0 0 1.844.352 5.514 5.514 0 0 0 1.577-.2 5.863 5.863 0 0 0 1.122-.449 6.054 6.054 0 0 0 .721-.449.821.821 0 0 1 .388-.2.278.278 0 0 1 .242.121l.315.388a3.3 3.3 0 0 1-.77.68 5.494 5.494 0 0 1-1.068.54 7.761 7.761 0 0 1-1.261.358 6.967 6.967 0 0 1-1.353.133 5.747 5.747 0 0 1-2.256-.431 4.8 4.8 0 0 1-1.749-1.256 5.75 5.75 0 0 1-1.128-2.02 8.646 8.646 0 0 1-.4-2.736 7.455 7.455 0 0 1 .37-2.4 5.485 5.485 0 0 1 1.068-1.893 4.86 4.86 0 0 1 1.71-1.244 5.633 5.633 0 0 1 2.3-.447zm.019.862a4.533 4.533 0 0 0-1.672.291 3.659 3.659 0 0 0-1.278.837 4.252 4.252 0 0 0-.872 1.31 5.976 5.976 0 0 0-.442 1.711h7.947a5.312 5.312 0 0 0-.266-1.741 3.741 3.741 0 0 0-.751-1.3 3.252 3.252 0 0 0-1.163-.819 3.842 3.842 0 0 0-1.503-.289z"/></g></svg>