<svg xmlns="http://www.w3.org/2000/svg" width="42" height="42" viewBox="0 0 42 42"><defs><style>path{fill:#fff;}.a,.c{fill:none}.a{stroke:#fff}.b{stroke:#fff}</style></defs><g class="a"><circle class="b" cx="21" cy="21" r="21"/><circle class="c" cx="21" cy="21" r="20.5"/></g><path d="M20.293 13.736a.277.277 0 0 1-.293-.294v-2.147a.277.277 0 0 1 .293-.294h2a.278.278 0 0 1 .294.294v2.147a.279.279 0 0 1-.294.294zM20.353 31a.277.277 0 0 1-.294-.294v-13.5a.278.278 0 0 1 .294-.294h1.882a.278.278 0 0 1 .294.294v13.5a.277.277 0 0 1-.294.294z"/></svg>